<svg width="39" height="44" viewBox="0 0 39 44" fill="none" xmlns="http://www.w3.org/2000/svg">
<path d="M36.54 34.72C37.58 35.72 38.1 36.88 38.1 38.2C38.1 39.52 37.6 40.68 36.6 41.68C35.6 42.68 34.42 43.18 33.06 43.18C31.58 43.18 30.22 42.54 28.98 41.26L11.88 23.74V37.9C11.88 39.58 11.38 40.92 10.38 41.92C9.38 42.88 8.02 43.36 6.3 43.36C4.62 43.36 3.28 42.88 2.28 41.92C1.32 40.92 0.84 39.58 0.84 37.9V5.8C0.84 4.16 1.32 2.86 2.28 1.9C3.28 0.899997 4.62 0.399998 6.3 0.399998C8.02 0.399998 9.38 0.899997 10.38 1.9C11.38 2.86 11.88 4.16 11.88 5.8V19L28.74 2.02C29.78 0.939998 30.96 0.399998 32.28 0.399998C33.6 0.399998 34.76 0.899997 35.76 1.9C36.76 2.86 37.26 4 37.26 5.32C37.26 6.64 36.68 7.86 35.52 8.98L23.22 21.04L36.54 34.72Z" fill="url(#paint0_linear)"/>
<defs>
<linearGradient id="paint0_linear" x1="19" y1="-18" x2="54.0281" y2="12.9072" gradientUnits="userSpaceOnUse">
<stop stop-color="#5320E5"/>
<stop offset="1" stop-color="#E11BE5"/>
</linearGradient>
</defs>
</svg>
