<svg width="471" height="148" viewBox="0 0 471 148" fill="none" xmlns="http://www.w3.org/2000/svg">
<path d="M79.08 104.44C81.16 106.44 82.2 108.76 82.2 111.4C82.2 114.04 81.2 116.36 79.2 118.36C77.2 120.36 74.84 121.36 72.12 121.36C69.16 121.36 66.44 120.08 63.96 117.52L29.76 82.48V110.8C29.76 114.16 28.76 116.84 26.76 118.84C24.76 120.76 22.04 121.72 18.6 121.72C15.24 121.72 12.56 120.76 10.56 118.84C8.64 116.84 7.68 114.16 7.68 110.8V46.6C7.68 43.32 8.64 40.72 10.56 38.8C12.56 36.8 15.24 35.8 18.6 35.8C22.04 35.8 24.76 36.8 26.76 38.8C28.76 40.72 29.76 43.32 29.76 46.6V73L63.48 39.04C65.56 36.88 67.92 35.8 70.56 35.8C73.2 35.8 75.52 36.8 77.52 38.8C79.52 40.72 80.52 43 80.52 45.64C80.52 48.28 79.36 50.72 77.04 52.96L52.44 77.08L79.08 104.44Z" fill="url(#paint0_linear)"/>
<path d="M104.144 96.384C101.072 96.384 98.4 95.696 96.128 94.32C93.856 92.912 92.112 90.912 90.896 88.32C89.68 85.696 89.072 82.624 89.072 79.104C89.072 75.552 89.68 72.48 90.896 69.888C92.112 67.264 93.84 65.264 96.08 63.888C98.352 62.48 101.04 61.776 104.144 61.776C107.248 61.776 109.936 62.48 112.208 63.888C114.48 65.264 116.224 67.248 117.44 69.84C118.656 72.432 119.264 75.504 119.264 79.056C119.264 82.608 118.656 85.696 117.44 88.32C116.224 90.912 114.48 92.912 112.208 94.32C109.936 95.696 107.248 96.384 104.144 96.384ZM104.144 93.744C107.952 93.744 110.912 92.464 113.024 89.904C115.136 87.344 116.192 83.728 116.192 79.056C116.192 74.384 115.136 70.784 113.024 68.256C110.944 65.696 107.984 64.416 104.144 64.416C100.336 64.416 97.376 65.696 95.264 68.256C93.184 70.816 92.144 74.416 92.144 79.056C92.144 83.696 93.184 87.312 95.264 89.904C97.376 92.464 100.336 93.744 104.144 93.744ZM159.048 61.92C159.496 61.92 159.832 62.064 160.056 62.352C160.312 62.608 160.44 62.976 160.44 63.456V94.704C160.44 95.152 160.312 95.52 160.056 95.808C159.8 96.096 159.448 96.24 159 96.24C158.52 96.24 158.088 96 157.704 95.52L136.68 67.152V94.704C136.68 95.152 136.552 95.52 136.296 95.808C136.04 96.096 135.704 96.24 135.288 96.24C134.808 96.24 134.456 96.112 134.232 95.856C134.008 95.568 133.896 95.184 133.896 94.704V63.456C133.896 63.008 134.024 62.64 134.28 62.352C134.568 62.064 134.952 61.92 135.432 61.92C135.944 61.92 136.36 62.16 136.68 62.64L157.656 90.96V63.456C157.656 63.008 157.784 62.64 158.04 62.352C158.296 62.064 158.632 61.92 159.048 61.92ZM201.545 61.92C201.993 61.92 202.329 62.064 202.553 62.352C202.809 62.608 202.937 62.976 202.937 63.456V94.704C202.937 95.152 202.809 95.52 202.553 95.808C202.297 96.096 201.945 96.24 201.497 96.24C201.017 96.24 200.585 96 200.201 95.52L179.177 67.152V94.704C179.177 95.152 179.049 95.52 178.793 95.808C178.537 96.096 178.201 96.24 177.785 96.24C177.305 96.24 176.953 96.112 176.729 95.856C176.505 95.568 176.393 95.184 176.393 94.704V63.456C176.393 63.008 176.521 62.64 176.777 62.352C177.065 62.064 177.449 61.92 177.929 61.92C178.441 61.92 178.857 62.16 179.177 62.64L200.153 90.96V63.456C200.153 63.008 200.281 62.64 200.537 62.352C200.793 62.064 201.129 61.92 201.545 61.92ZM220.474 96C220.026 96 219.642 95.856 219.322 95.568C219.034 95.28 218.89 94.928 218.89 94.512V63.648C218.89 63.232 219.034 62.88 219.322 62.592C219.642 62.304 220.026 62.16 220.474 62.16H238.714C239.13 62.16 239.45 62.272 239.674 62.496C239.93 62.72 240.058 63.04 240.058 63.456C240.058 63.84 239.93 64.144 239.674 64.368C239.45 64.592 239.13 64.704 238.714 64.704H221.818V77.52H237.754C238.17 77.52 238.49 77.632 238.714 77.856C238.97 78.08 239.098 78.4 239.098 78.816C239.098 79.232 238.97 79.552 238.714 79.776C238.49 80 238.17 80.112 237.754 80.112H221.818V93.456H238.714C239.13 93.456 239.45 93.568 239.674 93.792C239.93 93.984 240.058 94.288 240.058 94.704C240.058 95.12 239.93 95.44 239.674 95.664C239.45 95.888 239.13 96 238.714 96H220.474ZM267.716 96.384C264.58 96.384 261.844 95.696 259.508 94.32C257.204 92.912 255.428 90.912 254.18 88.32C252.964 85.696 252.356 82.608 252.356 79.056C252.356 75.504 252.964 72.432 254.18 69.84C255.428 67.248 257.204 65.264 259.508 63.888C261.844 62.48 264.58 61.776 267.716 61.776C269.86 61.776 271.892 62.144 273.812 62.88C275.764 63.584 277.412 64.608 278.756 65.952C279.204 66.368 279.428 66.832 279.428 67.344C279.428 67.696 279.316 68 279.092 68.256C278.9 68.512 278.676 68.64 278.42 68.64C278.1 68.64 277.732 68.48 277.316 68.16C275.588 66.752 274.02 65.776 272.612 65.232C271.204 64.688 269.556 64.416 267.668 64.416C263.796 64.416 260.788 65.696 258.644 68.256C256.532 70.816 255.476 74.416 255.476 79.056C255.476 83.728 256.532 87.344 258.644 89.904C260.788 92.464 263.796 93.744 267.668 93.744C269.556 93.744 271.204 93.472 272.612 92.928C274.02 92.384 275.588 91.408 277.316 90C277.796 89.68 278.164 89.52 278.42 89.52C278.676 89.52 278.9 89.648 279.092 89.904C279.316 90.16 279.428 90.464 279.428 90.816C279.428 91.328 279.204 91.792 278.756 92.208C277.412 93.552 275.764 94.592 273.812 95.328C271.892 96.032 269.86 96.384 267.716 96.384ZM302.66 96.24C302.212 96.24 301.86 96.096 301.604 95.808C301.348 95.52 301.22 95.152 301.22 94.704V64.752H290.132C289.716 64.752 289.38 64.64 289.124 64.416C288.9 64.192 288.788 63.872 288.788 63.456C288.788 63.04 288.9 62.72 289.124 62.496C289.38 62.272 289.716 62.16 290.132 62.16H315.188C315.572 62.16 315.892 62.288 316.148 62.544C316.404 62.768 316.532 63.072 316.532 63.456C316.532 63.84 316.404 64.16 316.148 64.416C315.892 64.64 315.572 64.752 315.188 64.752H304.148V94.704C304.148 95.152 304.004 95.52 303.716 95.808C303.46 96.096 303.108 96.24 302.66 96.24ZM329.868 96.24C329.42 96.24 329.052 96.096 328.764 95.808C328.508 95.52 328.38 95.152 328.38 94.704V63.456C328.38 63.008 328.508 62.64 328.764 62.352C329.052 62.064 329.42 61.92 329.868 61.92C330.316 61.92 330.668 62.064 330.924 62.352C331.212 62.64 331.356 63.008 331.356 63.456V94.704C331.356 95.152 331.212 95.52 330.924 95.808C330.668 96.096 330.316 96.24 329.868 96.24ZM361.075 96.384C358.003 96.384 355.331 95.696 353.059 94.32C350.787 92.912 349.043 90.912 347.827 88.32C346.611 85.696 346.003 82.624 346.003 79.104C346.003 75.552 346.611 72.48 347.827 69.888C349.043 67.264 350.771 65.264 353.011 63.888C355.283 62.48 357.971 61.776 361.075 61.776C364.179 61.776 366.867 62.48 369.139 63.888C371.411 65.264 373.155 67.248 374.371 69.84C375.587 72.432 376.195 75.504 376.195 79.056C376.195 82.608 375.587 85.696 374.371 88.32C373.155 90.912 371.411 92.912 369.139 94.32C366.867 95.696 364.179 96.384 361.075 96.384ZM361.075 93.744C364.883 93.744 367.843 92.464 369.955 89.904C372.067 87.344 373.123 83.728 373.123 79.056C373.123 74.384 372.067 70.784 369.955 68.256C367.875 65.696 364.915 64.416 361.075 64.416C357.267 64.416 354.307 65.696 352.195 68.256C350.115 70.816 349.075 74.416 349.075 79.056C349.075 83.696 350.115 87.312 352.195 89.904C354.307 92.464 357.267 93.744 361.075 93.744ZM415.979 61.92C416.427 61.92 416.763 62.064 416.987 62.352C417.243 62.608 417.371 62.976 417.371 63.456V94.704C417.371 95.152 417.243 95.52 416.987 95.808C416.731 96.096 416.379 96.24 415.931 96.24C415.451 96.24 415.019 96 414.635 95.52L393.611 67.152V94.704C393.611 95.152 393.483 95.52 393.227 95.808C392.971 96.096 392.635 96.24 392.219 96.24C391.739 96.24 391.387 96.112 391.163 95.856C390.939 95.568 390.827 95.184 390.827 94.704V63.456C390.827 63.008 390.955 62.64 391.211 62.352C391.499 62.064 391.883 61.92 392.363 61.92C392.875 61.92 393.291 62.16 393.611 62.64L414.587 90.96V63.456C414.587 63.008 414.715 62.64 414.971 62.352C415.227 62.064 415.563 61.92 415.979 61.92ZM443.74 96.384C441.372 96.384 439.084 96.016 436.876 95.28C434.7 94.512 432.988 93.488 431.74 92.208C431.324 91.856 431.116 91.392 431.116 90.816C431.116 90.464 431.212 90.16 431.404 89.904C431.628 89.648 431.868 89.52 432.124 89.52C432.444 89.52 432.812 89.68 433.228 90C436.236 92.496 439.74 93.744 443.74 93.744C446.652 93.744 448.892 93.168 450.46 92.016C452.06 90.832 452.86 89.168 452.86 87.024C452.86 85.776 452.476 84.768 451.708 84C450.94 83.232 449.964 82.64 448.78 82.224C447.596 81.776 446.012 81.328 444.028 80.88C441.404 80.304 439.276 79.712 437.644 79.104C436.044 78.496 434.684 77.584 433.564 76.368C432.444 75.12 431.884 73.456 431.884 71.376C431.884 69.488 432.38 67.824 433.372 66.384C434.396 64.912 435.82 63.776 437.644 62.976C439.468 62.176 441.564 61.776 443.932 61.776C446.14 61.776 448.22 62.144 450.172 62.88C452.124 63.584 453.74 64.608 455.02 65.952C455.436 66.368 455.644 66.832 455.644 67.344C455.644 67.696 455.532 68 455.308 68.256C455.116 68.512 454.892 68.64 454.636 68.64C454.316 68.64 453.948 68.48 453.532 68.16C451.804 66.752 450.236 65.776 448.828 65.232C447.452 64.688 445.82 64.416 443.932 64.416C441.084 64.416 438.86 65.024 437.26 66.24C435.66 67.456 434.86 69.152 434.86 71.328C434.86 72.64 435.212 73.712 435.916 74.544C436.62 75.344 437.532 75.984 438.652 76.464C439.804 76.944 441.276 77.408 443.068 77.856L444.316 78.144C446.908 78.784 448.956 79.376 450.46 79.92C451.964 80.464 453.228 81.312 454.252 82.464C455.308 83.584 455.836 85.104 455.836 87.024C455.836 88.848 455.324 90.48 454.3 91.92C453.308 93.328 451.884 94.432 450.028 95.232C448.204 96 446.108 96.384 443.74 96.384Z" fill="black"/>
<defs>
<linearGradient id="paint0_linear" x1="47.5" y1="0" x2="120.926" y2="66.2379" gradientUnits="userSpaceOnUse">
<stop stop-color="#5320E5"/>
<stop offset="1" stop-color="#E11BE5"/>
</linearGradient>
</defs>
</svg>
